<svg width="36" height="37" viewBox="0 0 36 37" fill="none" xmlns="http://www.w3.org/2000/svg">
<path d="M10.5 12.5C12.9853 12.5 15 10.4853 15 8C15 5.51472 12.9853 3.5 10.5 3.5C8.01472 3.5 6 5.51472 6 8C6 10.4853 8.01472 12.5 10.5 12.5Z" stroke="#3A4360" stroke-width="3"/>
<path d="M15.0001 18.5H8.84709C7.75047 18.5003 6.69171 18.901 5.86971 19.6269C5.04772 20.3528 4.51907 21.3538 4.38309 22.442L3.42159 30.128C3.36884 30.5501 3.40647 30.9787 3.532 31.3852C3.65752 31.7917 3.86807 32.1668 4.14965 32.4857C4.43124 32.8046 4.77744 33.0599 5.16526 33.2348C5.55308 33.4097 5.97366 33.5001 6.39909 33.5H13.5001M32.5786 30.128L31.6186 22.442C31.4825 21.3533 30.9535 20.3519 30.1308 19.6259C29.3082 18.9 28.2487 18.4996 27.1516 18.5H23.8456C22.749 18.5003 21.6902 18.901 20.8682 19.6269C20.0462 20.3528 19.5176 21.3538 19.3816 22.442L18.4201 30.128C18.3673 30.5503 18.405 30.9789 18.5306 31.3855C18.6562 31.7921 18.8669 32.1673 19.1487 32.4863C19.4304 32.8052 19.7768 33.0605 20.1648 33.2353C20.5528 33.4101 20.9735 33.5003 21.3991 33.5H29.6011C30.0265 33.5001 30.4471 33.4097 30.8349 33.2348C31.2227 33.0599 31.5689 32.8046 31.8505 32.4857C32.1321 32.1668 32.3427 31.7917 32.4682 31.3852C32.5937 30.9787 32.6313 30.5501 32.5786 30.128Z" stroke="#3A4360" stroke-width="3" stroke-linecap="round" stroke-linejoin="round"/>
<path d="M25.5 12.5C27.9853 12.5 30 10.4853 30 8C30 5.51472 27.9853 3.5 25.5 3.5C23.0147 3.5 21 5.51472 21 8C21 10.4853 23.0147 12.5 25.5 12.5Z" stroke="#3A4360" stroke-width="3"/>
</svg>
