<svg width="36" height="37" viewBox="0 0 36 37" fill="none" xmlns="http://www.w3.org/2000/svg">
<path d="M6 32H20.43C21.2956 32.0005 22.1511 31.8134 22.9375 31.4517C23.7239 31.0899 24.4226 30.5621 24.9855 29.9045L32.6385 20.9765C32.7988 20.7899 32.9107 20.5667 32.9643 20.3267C33.018 20.0866 33.0118 19.837 32.9463 19.5999C32.8808 19.3628 32.758 19.1454 32.5887 18.967C32.4194 18.7885 32.2088 18.6544 31.9755 18.5765L29.0235 17.5925C28.31 17.3606 27.5504 17.3081 26.8118 17.4397C26.0732 17.5713 25.3785 17.8829 24.789 18.347L20.0115 22.1675L19.086 20.315C18.5902 19.3164 17.8246 18.4766 16.8761 17.8908C15.9276 17.3049 14.8339 16.9963 13.719 17H6C4.3455 17 3 18.3455 3 20V29C3 30.6545 4.3455 32 6 32ZM6 20H13.719C14.8635 20 15.891 20.6345 16.4025 21.6575L17.073 23H10.5V26H19.521C19.7518 25.997 19.9787 25.9405 20.184 25.835L20.1885 25.8335L20.1945 25.8305H20.199L20.202 25.829H20.208L20.2095 25.8275C20.223 25.832 20.214 25.826 20.214 25.826C20.229 25.826 20.217 25.8245 20.217 25.8245H20.2185L20.2215 25.823L20.226 25.8215L20.229 25.82L20.232 25.8185L20.2365 25.817L20.2395 25.8155C20.244 25.8155 20.2425 25.814 20.2425 25.814L20.247 25.811L20.25 25.8095L20.253 25.808L20.2575 25.8065L20.2605 25.805H20.262L20.265 25.8035L20.2695 25.802L20.2725 25.8005C20.286 25.799 20.277 25.799 20.277 25.799L20.28 25.7975C20.3378 25.7626 20.393 25.7235 20.445 25.6805L26.664 20.705C27.057 20.393 27.5985 20.2955 28.074 20.4545L28.9095 20.7335L22.71 27.968C22.4248 28.2918 22.0741 28.5513 21.681 28.7292C21.2879 28.9071 20.8615 28.9994 20.43 29H6V20ZM24 3.50001H23.9745C23.73 3.50301 22.4655 3.55851 21 4.55751C19.5735 3.58551 18.339 3.50751 18.048 3.50151L18.003 3.50001H17.997C16.7955 3.50001 15.6645 3.96951 14.8185 4.81701C13.9695 5.66751 13.5 6.79701 13.5 8.00001C13.5 9.20301 13.9695 10.3325 14.7915 11.156L19.9125 16.535C20.0534 16.6813 20.2224 16.7976 20.4093 16.877C20.5962 16.9564 20.7972 16.9973 21.0003 16.9971C21.2034 16.997 21.4044 16.9558 21.5912 16.8762C21.778 16.7965 21.9468 16.68 22.0875 16.5335L27.1815 11.1815C28.032 10.3325 28.5 9.20301 28.5 8.00001C28.5 6.79701 28.0305 5.66751 27.183 4.81851C26.7665 4.39933 26.271 4.06695 25.7251 3.84063C25.1793 3.6143 24.5939 3.49853 24.003 3.50001H24ZM25.5 8.00001C25.5 8.40051 25.344 8.77701 25.0335 9.08751L21 13.325L16.9395 9.06051C16.656 8.77701 16.5 8.40051 16.5 8.00001C16.5 7.59951 16.656 7.22301 16.941 6.93801C17.2123 6.6621 17.5816 6.50465 17.9685 6.50001C18.006 6.50151 18.7215 6.54801 19.569 7.22751C19.6905 7.32501 19.8135 7.43601 19.9395 7.56051L21 8.62101L22.0605 7.56051C22.1865 7.43601 22.3095 7.32501 22.431 7.22751C23.2245 6.59001 23.895 6.51051 24.009 6.50151C24.2045 6.50148 24.3981 6.54016 24.5786 6.61534C24.759 6.69052 24.9228 6.8007 25.0605 6.93951C25.344 7.22301 25.5 7.59951 25.5 8.00001Z" fill="#3A4360"/>
</svg>
