<svg width="80" height="59" viewBox="0 0 80 59" fill="none" xmlns="http://www.w3.org/2000/svg">
<path d="M57.8635 1.9873C56.2961 9.02746 62.0151 15.8704 77.5283 14.6507C51.9993 24.7464 51.59 27.9155 55.3115 53.9978C53.1715 47.539 50.7681 43.5655 48.2562 41.3974C46.1191 47.4901 45.9614 50.9104 46.1546 57.0129C44.0863 48.347 41.773 42.9106 39.1278 40.1645C33.9077 42.5302 29.0024 49.0821 25.7392 53.9978C25.7392 47.0631 28.3143 40.7314 28.3143 40.7314C24.3784 43.8654 19.9071 49.539 14.781 57.0129C15.2723 42.0646 16.1296 35.3004 18.6839 29.5755C12.2163 28.4188 9.52631 26.2284 8.54265 23.6947C6.19302 17.6425 13.5792 9.63171 2.47168 9.0728C12.8271 5.22525 19.1319 14.1947 20.185 19.0226C20.3366 19.7174 20.4192 20.3495 20.4488 20.9343C20.4664 21.281 20.4653 21.6111 20.4488 21.9278C20.3003 24.7892 18.8993 26.5542 18.6839 29.5755C25.1515 30.7322 51.7213 29.5755 57.8635 1.9873Z" fill="white"/>
<path d="M59.5716 2.36761C59.7817 1.42421 59.1872 0.489163 58.2438 0.279127C57.3004 0.0690918 56.3653 0.663601 56.1553 1.607L59.5716 2.36761ZM77.5283 14.6507L78.1719 16.2781C78.9773 15.9596 79.4286 15.0998 79.2332 14.256C79.0378 13.4122 78.2546 12.8382 77.3911 12.9061L77.5283 14.6507ZM25.7392 53.9978H23.9892C23.9892 54.7696 24.4949 55.4503 25.2338 55.6732C25.9727 55.8962 26.7704 55.6087 27.1972 54.9657L25.7392 53.9978ZM20.185 19.0226L18.4753 19.3956V19.3956L20.185 19.0226ZM2.47168 9.0728L1.86218 7.43237C1.08368 7.72162 0.615699 8.51821 0.742052 9.33904C0.868404 10.1599 1.55428 10.7788 2.38373 10.8206L2.47168 9.0728ZM14.781 57.0129L13.0319 56.9555C13.0064 57.7326 13.4966 58.4334 14.2354 58.6757C14.9742 58.9181 15.7844 58.644 16.2241 58.0028L14.781 57.0129ZM46.1546 57.0129L44.4524 57.4192C44.6609 58.2926 45.4966 58.8665 46.3867 58.7475C47.2767 58.6284 47.9322 57.8551 47.9038 56.9576L46.1546 57.0129ZM48.2562 41.3974L49.3997 40.0726L48.2562 41.3974ZM55.3115 53.9978L53.6503 54.5482C53.9353 55.4084 54.8298 55.9087 55.7119 55.7014C56.594 55.4941 57.172 54.6477 57.044 53.7506L55.3115 53.9978ZM8.54265 23.6947L6.91128 24.328L8.54265 23.6947ZM12.229 19.9085L13.3149 18.5362C12.6115 17.9795 11.601 18.045 10.9752 18.6877L12.229 19.9085ZM14.781 21.9278L13.6951 23.3001C14.1083 23.6271 14.6469 23.7505 15.1613 23.636C15.6757 23.5214 16.1111 23.1812 16.3465 22.7098L14.781 21.9278ZM16.2321 19.0226L16.9546 17.4288C16.0977 17.0403 15.0869 17.3989 14.6665 18.2407L16.2321 19.0226ZM20.4488 21.9278L18.7012 21.8371L20.4488 21.9278ZM20.4488 20.9343L22.1966 20.8459V20.8459L20.4488 20.9343ZM56.1553 1.607C55.2329 5.74996 56.4794 9.92625 60.2243 12.8041C63.8765 15.6106 69.686 17.0227 77.6655 16.3954L77.3911 12.9061C69.8574 13.4985 65.0508 12.0989 62.357 10.0289C59.756 8.03008 58.9266 5.2648 59.5716 2.36761L56.1553 1.607ZM27.4892 53.9978C27.4892 50.7322 28.0979 47.5737 28.7193 45.2089C29.0285 44.0323 29.3372 43.066 29.5668 42.3982C29.6816 42.0646 29.7763 41.8064 29.8411 41.6346C29.8735 41.5487 29.8984 41.4845 29.9145 41.4434C29.9226 41.4228 29.9284 41.408 29.932 41.3992C29.9338 41.3948 29.9349 41.3918 29.9355 41.3904C29.9358 41.3897 29.9359 41.3894 29.9359 41.3894C29.9359 41.3894 29.9359 41.3895 29.9358 41.3897C29.9357 41.3899 29.9356 41.3901 29.9356 41.3901C29.9355 41.3904 29.9354 41.3907 28.3143 40.7314C26.6933 40.0721 26.6931 40.0724 26.693 40.0728C26.6929 40.0729 26.6928 40.0733 26.6927 40.0736C26.6924 40.0742 26.6921 40.0749 26.6918 40.0757C26.6912 40.0773 26.6904 40.0792 26.6894 40.0816C26.6875 40.0863 26.685 40.0926 26.6819 40.1003C26.6757 40.1159 26.6671 40.1375 26.6563 40.165C26.6348 40.22 26.6043 40.2986 26.5663 40.3994C26.4903 40.6009 26.3838 40.8916 26.2571 41.2599C26.0039 41.9961 25.6688 43.0461 25.3343 44.3193C24.6681 46.854 23.9892 50.3288 23.9892 53.9978H27.4892ZM21.8948 18.6497C21.285 15.8543 19.2326 12.0451 15.8996 9.41967C12.4699 6.71808 7.67099 5.2741 1.86218 7.43237L3.08118 10.7132C7.62776 9.02394 11.159 10.1409 13.7338 12.1691C16.4053 14.2735 18.0319 17.363 18.4753 19.3956L21.8948 18.6497ZM17.0858 28.8624C14.3732 34.9419 13.5223 42.0366 13.0319 56.9555L16.53 57.0704C17.0223 42.0926 17.8859 35.6588 20.2821 30.2886L17.0858 28.8624ZM47.9038 56.9576C47.7145 50.9808 47.8666 47.7951 49.9076 41.9767L46.6049 40.8182C44.3715 47.1851 44.2083 50.8401 44.4055 57.0683L47.9038 56.9576ZM56.1553 1.607C53.2207 14.788 45.4692 21.5584 37.6947 24.9573C29.8157 28.4019 21.91 28.3747 18.992 27.8528L18.3758 31.2982C21.9254 31.933 30.5385 31.9058 39.0967 28.1642C47.7596 24.3769 56.3641 16.7749 59.5716 2.36761L56.1553 1.607ZM16.2241 58.0028C21.3535 50.524 25.696 45.0533 29.4044 42.1004L27.2242 39.3624C23.0609 42.6775 18.4606 48.5539 13.3378 56.0231L16.2241 58.0028ZM29.4044 42.1004C31.3582 40.5447 32.9521 39.8394 34.2429 39.7455C35.428 39.6593 36.6073 40.0704 37.8674 41.3786L40.3882 38.9504C38.5469 37.0389 36.3966 36.0795 33.9889 36.2547C31.6868 36.4222 29.4247 37.6102 27.2242 39.3624L29.4044 42.1004ZM37.8674 41.3786C40.1554 43.7537 42.3875 48.7675 44.4524 57.4192L47.8568 56.6067C45.7851 47.9264 43.3907 42.0674 40.3882 38.9504L37.8674 41.3786ZM76.8847 13.0234C70.5019 15.5475 65.5719 17.6826 61.8687 19.8861C58.1439 22.1024 55.525 24.4652 53.9061 27.5072C52.293 30.5383 51.7842 34.0366 51.8733 38.3026C51.9619 42.5504 52.6519 47.7469 53.5791 54.245L57.044 53.7506C56.1104 47.2076 55.456 42.2272 55.3725 38.2296C55.2894 34.2502 55.7807 31.4348 56.9958 29.1514C58.2052 26.8789 60.2426 24.9263 63.6584 22.8939C67.0956 20.8487 71.7901 18.8018 78.1719 16.2781L76.8847 13.0234ZM27.1972 54.9657C28.8086 52.5383 30.7971 49.7509 33.0021 47.2938C35.2275 44.814 37.5658 42.7937 39.8502 41.7584L38.4054 38.5705C35.4698 39.901 32.7453 42.3396 30.3972 44.9561C28.0288 47.5953 25.933 50.5417 24.2812 53.03L27.1972 54.9657ZM39.8502 41.7584C41.1528 41.1681 42.3773 40.9254 43.5296 41.0445C44.6656 41.1619 45.8634 41.6439 47.1128 42.7222L49.3997 40.0726C47.6725 38.5819 45.8178 37.7624 43.8895 37.563C41.9774 37.3654 40.126 37.7908 38.4054 38.5705L39.8502 41.7584ZM47.1128 42.7222C49.2724 44.5862 51.5491 48.2064 53.6503 54.5482L56.9727 53.4474C54.794 46.8717 52.2638 42.5448 49.3997 40.0726L47.1128 42.7222ZM2.38373 10.8206C5.02014 10.9532 6.08745 11.5198 6.52635 11.9674C6.91055 12.3592 7.11684 12.9744 7.04433 14.2222C7.00875 14.8344 6.91211 15.5087 6.78953 16.282C6.67106 17.0293 6.5263 17.8805 6.42667 18.732C6.22774 20.432 6.16758 22.4124 6.91128 24.328L10.174 23.0613C9.74291 21.9509 9.72491 20.6603 9.90295 19.1387C9.9918 18.3794 10.1192 17.632 10.2464 16.8299C10.3694 16.0538 10.4918 15.2277 10.5384 14.4253C10.6303 12.8441 10.4536 10.9735 9.02533 9.5169C7.65173 8.11614 5.47699 7.47181 2.55963 7.32501L2.38373 10.8206ZM6.91128 24.328C8.22482 27.7114 11.6795 30.1006 18.3758 31.2982L18.992 27.8528C12.7531 26.737 10.8278 24.7453 10.174 23.0613L6.91128 24.328ZM9.7965 24.9155L13.4829 21.1293L10.9752 18.6877L7.2888 22.4739L9.7965 24.9155ZM11.1431 21.2808L13.6951 23.3001L15.8669 20.5555L13.3149 18.5362L11.1431 21.2808ZM16.3465 22.7098L17.7976 19.8046L14.6665 18.2407L13.2154 21.1458L16.3465 22.7098ZM20.4295 29.7C20.5195 28.4378 20.8516 27.4345 21.2501 26.2496C21.6422 25.084 22.1082 23.7179 22.1965 22.0185L18.7012 21.8371C18.6408 22.9991 18.3322 23.9463 17.9327 25.1338C17.5398 26.3021 17.0638 27.6919 16.9383 29.4511L20.4295 29.7ZM22.1965 22.0185C22.216 21.6426 22.2172 21.2527 22.1966 20.8459L18.7011 21.0228C18.7156 21.3094 18.7145 21.5797 18.7012 21.8371L22.1965 22.0185ZM22.1966 20.8459C22.1618 20.1592 22.0655 19.4318 21.8948 18.6497L18.4753 19.3956C18.6077 20.0029 18.6766 20.5398 18.7011 21.0228L22.1966 20.8459ZM15.5095 20.6165L19.7262 22.5282L21.1714 19.3405L16.9546 17.4288L15.5095 20.6165Z" fill="#E13D09"/>
</svg>
