<svg width="256" height="49" viewBox="0 0 256 49" fill="none" xmlns="http://www.w3.org/2000/svg">
<path d="M7.638 22.598H7.53C7.458 22.958 7.098 24.398 6.45 26.918C5.838 29.438 5.442 31.094 5.262 31.886C5.082 32.642 4.92 33.254 4.776 33.722C4.668 34.19 4.542 34.73 4.398 35.342C4.254 35.918 4.11 36.386 3.966 36.746C3.858 37.07 3.75 37.394 3.642 37.718C3.426 38.33 3.21 38.636 2.994 38.636C2.526 38.636 1.914 38.132 1.158 37.124C0.402 36.08 0.0240001 35.234 0.0240001 34.586C0.0240001 33.938 1.05 29.438 3.102 21.086C5.19 12.734 6.27 7.172 6.342 4.4C6.342 3.86 6.468 3.428 6.72 3.104C7.08 2.348 8.142 1.808 9.906 1.484C11.706 1.16 14.316 0.997997 17.736 0.997997C21.192 0.997997 23.892 1.178 25.836 1.538C27.816 1.898 28.806 2.402 28.806 3.05C28.806 3.482 28.5 3.788 27.888 3.968C27.276 4.148 26.736 4.292 26.268 4.4C25.8 4.472 25.188 4.562 24.432 4.67C23.676 4.742 22.974 4.814 22.326 4.886C21.678 4.922 20.832 4.994 19.788 5.102C18.78 5.21 17.844 5.318 16.98 5.426C16.116 5.498 14.946 5.624 13.47 5.804C11.994 5.984 11.04 6.092 10.608 6.128C10.644 6.236 10.662 6.398 10.662 6.614C10.662 8.306 9.96 12.194 8.556 18.278C10.788 18.386 13.182 18.332 15.738 18.116C18.33 17.9 19.914 17.792 20.49 17.792C21.858 17.792 22.542 18.08 22.542 18.656C22.542 19.772 20.976 20.708 17.844 21.464C14.748 22.22 11.346 22.598 7.638 22.598ZM24.7616 35.396C26.0576 34.82 27.1856 33.656 28.1456 31.904C29.1056 30.152 29.5856 28.508 29.5856 26.972C29.5856 25.436 29.3696 24.38 28.9376 23.804C27.9056 24.404 26.8736 25.664 25.8416 27.584C24.8336 29.504 24.3296 31.196 24.3296 32.66C24.3296 34.1 24.4736 35.012 24.7616 35.396ZM19.5056 33.02C19.5056 30.02 20.4296 27.176 22.2776 24.488C24.1496 21.8 25.9976 20.456 27.8216 20.456C29.6456 20.456 31.1816 21.104 32.4296 22.4C33.6776 23.672 34.3016 25.22 34.3016 27.044C34.3016 28.844 33.8696 30.68 33.0056 32.552C32.1416 34.424 30.9296 35.984 29.3696 37.232C27.8096 38.456 26.1416 39.068 24.3656 39.068C23.0456 39.068 21.9056 38.48 20.9456 37.304C19.9856 36.128 19.5056 34.7 19.5056 33.02ZM50.8276 37.736C50.8276 38.624 50.4316 39.068 49.6396 39.068C48.3436 39.068 46.6396 37.484 44.5276 34.316C41.7916 37.484 39.9556 39.068 39.0196 39.068C38.3716 39.068 37.7476 38.756 37.1476 38.132C36.5716 37.484 36.2836 36.92 36.2836 36.44C36.2836 36.32 36.5356 36.02 37.0396 35.54C39.0316 33.644 40.6996 31.856 42.0436 30.176C41.0116 28.304 40.1356 26.516 39.4156 24.812C38.6956 23.108 38.3356 22.076 38.3356 21.716C38.3356 21.332 38.3476 21.08 38.3716 20.96C38.4436 20.648 38.6596 20.492 39.0196 20.492C40.0276 20.492 41.0836 20.696 42.1876 21.104C43.3156 21.488 43.8796 21.944 43.8796 22.472C43.8796 23.312 44.2396 24.536 44.9596 26.144C46.4236 24.08 47.6116 22.616 48.5236 21.752C49.4596 20.888 50.2156 20.456 50.7916 20.456C51.3916 20.456 52.0516 20.804 52.7716 21.5C53.5156 22.196 53.8876 22.82 53.8876 23.372C53.8876 23.636 53.7796 23.888 53.5636 24.128C53.3476 24.368 53.0236 24.656 52.5916 24.992C52.1596 25.304 51.7396 25.664 51.3316 26.072C50.9476 26.48 49.6396 28.052 47.4076 30.788L48.4516 32.624C50.0356 35.408 50.8276 37.112 50.8276 37.736ZM76.9144 20.492C77.5864 20.492 78.3184 20.72 79.1104 21.176C79.9264 21.632 80.3344 22.112 80.3344 22.616C80.3344 23.12 79.9264 24.824 79.1104 27.728C78.2944 30.632 77.0104 33.248 75.2584 35.576C73.5304 37.88 72.2464 39.032 71.4064 39.032C71.0704 39.032 70.5664 38.792 69.8944 38.312C69.2224 37.832 68.7424 37.292 68.4544 36.692C67.9504 35.708 67.6984 32.828 67.6984 28.052C66.6664 31.412 65.4904 34.088 64.1704 36.08C62.8504 38.048 61.7824 39.032 60.9664 39.032C60.6064 39.032 60.0784 38.792 59.3824 38.312C58.7104 37.832 58.2784 37.352 58.0864 36.872C57.5584 35.576 57.0544 33.104 56.5744 29.456C56.0944 25.808 55.8544 23.312 55.8544 21.968C55.8544 20.984 56.1904 20.492 56.8624 20.492C57.7744 20.492 58.7104 21.044 59.6704 22.148C60.6304 23.252 61.1104 24.116 61.1104 24.74C61.1104 28.22 61.1464 30.992 61.2184 33.056C62.1784 31.592 63.0424 29.768 63.8104 27.584C64.6024 25.4 65.2384 23.672 65.7184 22.4C66.1984 21.128 66.7024 20.492 67.2304 20.492C68.2864 20.492 69.3304 21.008 70.3624 22.04C71.3944 23.048 71.9104 24.08 71.9104 25.136C71.9104 25.616 71.8264 26.612 71.6584 28.124C71.5144 29.636 71.4424 30.776 71.4424 31.544C71.4424 32.312 71.4904 32.948 71.5864 33.452C72.3784 32.66 73.0624 31.496 73.6384 29.96C74.2384 28.424 74.6704 26.972 74.9344 25.604C75.6064 22.196 76.2664 20.492 76.9144 20.492ZM87.029 35.396C88.325 34.82 89.453 33.656 90.413 31.904C91.373 30.152 91.853 28.508 91.853 26.972C91.853 25.436 91.637 24.38 91.205 23.804C90.173 24.404 89.141 25.664 88.109 27.584C87.101 29.504 86.597 31.196 86.597 32.66C86.597 34.1 86.741 35.012 87.029 35.396ZM81.773 33.02C81.773 30.02 82.697 27.176 84.545 24.488C86.417 21.8 88.265 20.456 90.089 20.456C91.913 20.456 93.449 21.104 94.697 22.4C95.945 23.672 96.569 25.22 96.569 27.044C96.569 28.844 96.137 30.68 95.273 32.552C94.409 34.424 93.197 35.984 91.637 37.232C90.077 38.456 88.409 39.068 86.633 39.068C85.313 39.068 84.173 38.48 83.213 37.304C82.253 36.128 81.773 34.7 81.773 33.02ZM104.527 35.396C105.823 34.82 106.951 33.656 107.911 31.904C108.871 30.152 109.351 28.508 109.351 26.972C109.351 25.436 109.135 24.38 108.703 23.804C107.671 24.404 106.639 25.664 105.607 27.584C104.599 29.504 104.095 31.196 104.095 32.66C104.095 34.1 104.239 35.012 104.527 35.396ZM99.2709 33.02C99.2709 30.02 100.195 27.176 102.043 24.488C103.915 21.8 105.763 20.456 107.587 20.456C109.411 20.456 110.947 21.104 112.195 22.4C113.443 23.672 114.067 25.22 114.067 27.044C114.067 28.844 113.635 30.68 112.771 32.552C111.907 34.424 110.695 35.984 109.135 37.232C107.575 38.456 105.907 39.068 104.131 39.068C102.811 39.068 101.671 38.48 100.711 37.304C99.7509 36.128 99.2709 34.7 99.2709 33.02ZM132.321 10.412C132.897 10.412 133.653 10.94 134.589 11.996C135.525 13.028 135.993 14 135.993 14.912C135.993 15.368 135.573 17.264 134.733 20.6C133.893 23.936 133.389 25.952 133.221 26.648C131.301 34.928 129.897 39.068 129.009 39.068C128.505 39.068 127.941 38.768 127.317 38.168C126.693 37.568 126.381 36.98 126.381 36.404C126.381 36.284 126.393 36.188 126.417 36.116C124.017 38.084 122.289 39.068 121.233 39.068C120.201 39.068 119.193 38.516 118.209 37.412C117.249 36.284 116.769 35.264 116.769 34.352C116.769 33.44 116.889 32.432 117.129 31.328C117.393 30.2 117.789 29.012 118.317 27.764C118.845 26.516 119.445 25.352 120.117 24.272C120.813 23.168 121.641 22.268 122.601 21.572C123.585 20.852 124.593 20.492 125.625 20.492C127.161 20.492 128.421 21.272 129.405 22.832C130.701 17.144 131.325 13.364 131.277 11.492C131.277 10.772 131.625 10.412 132.321 10.412ZM121.701 34.496C122.301 34.496 123.309 33.98 124.725 32.948C126.165 31.916 127.233 30.608 127.929 29.024C127.905 28.832 127.893 28.412 127.893 27.764C127.893 27.116 127.677 26.504 127.245 25.928C126.813 25.352 126.417 25.064 126.057 25.064C125.337 25.064 124.641 25.448 123.969 26.216C123.321 26.984 122.805 27.896 122.421 28.952C121.605 31.184 121.197 32.876 121.197 34.028C121.197 34.22 121.221 34.352 121.269 34.424C121.341 34.472 121.485 34.496 121.701 34.496ZM155.201 22.598H155.093C155.021 22.958 154.661 24.398 154.013 26.918C153.401 29.438 153.005 31.094 152.825 31.886C152.645 32.642 152.483 33.254 152.339 33.722C152.231 34.19 152.105 34.73 151.961 35.342C151.817 35.918 151.673 36.386 151.529 36.746C151.421 37.07 151.313 37.394 151.205 37.718C150.989 38.33 150.773 38.636 150.557 38.636C150.089 38.636 149.477 38.132 148.721 37.124C147.965 36.08 147.587 35.234 147.587 34.586C147.587 33.938 148.613 29.438 150.665 21.086C152.753 12.734 153.833 7.172 153.905 4.4C153.905 3.86 154.031 3.428 154.283 3.104C154.643 2.348 155.705 1.808 157.469 1.484C159.269 1.16 161.879 0.997997 165.299 0.997997C168.755 0.997997 171.455 1.178 173.399 1.538C175.379 1.898 176.369 2.402 176.369 3.05C176.369 3.482 176.063 3.788 175.451 3.968C174.839 4.148 174.299 4.292 173.831 4.4C173.363 4.472 172.751 4.562 171.995 4.67C171.239 4.742 170.537 4.814 169.889 4.886C169.241 4.922 168.395 4.994 167.351 5.102C166.343 5.21 165.407 5.318 164.543 5.426C163.679 5.498 162.509 5.624 161.033 5.804C159.557 5.984 158.603 6.092 158.171 6.128C158.207 6.236 158.225 6.398 158.225 6.614C158.225 8.306 157.523 12.194 156.119 18.278C158.351 18.386 160.745 18.332 163.301 18.116C165.893 17.9 167.477 17.792 168.053 17.792C169.421 17.792 170.105 18.08 170.105 18.656C170.105 19.772 168.539 20.708 165.407 21.464C162.311 22.22 158.909 22.598 155.201 22.598ZM182.548 28.844C182.98 29.228 183.196 29.576 183.196 29.888C183.196 30.2 183.052 30.848 182.764 31.832C182.476 32.816 182.284 33.584 182.188 34.136C182.092 34.664 182.008 35.084 181.936 35.396C181.888 35.708 181.852 35.96 181.828 36.152C181.804 36.32 181.756 36.536 181.684 36.8C181.636 37.064 181.588 37.28 181.54 37.448C181.516 37.592 181.468 37.772 181.396 37.988C181.348 38.18 181.288 38.336 181.216 38.456C181.144 38.552 181.06 38.66 180.964 38.78C180.82 38.972 180.58 39.068 180.244 39.068C179.908 39.068 179.488 38.732 178.984 38.06C178.504 37.388 178.144 36.572 177.904 35.612C175.648 37.916 173.752 39.068 172.216 39.068C171.184 39.068 170.068 38.504 168.868 37.376C167.668 36.224 167.068 35.084 167.068 33.956C167.068 32.804 167.584 31.172 168.616 29.06C169.648 26.948 171.052 24.992 172.828 23.192C174.628 21.392 176.404 20.492 178.156 20.492C179.164 20.492 180.328 21.08 181.648 22.256C182.968 23.432 183.628 24.512 183.628 25.496C183.628 26.456 183.268 27.572 182.548 28.844ZM172.072 34.532C173.032 34.532 174.304 33.884 175.888 32.588C177.496 31.268 178.492 29.612 178.876 27.62C178.9 27.332 179.104 27.164 179.488 27.116C179.416 25.748 179.188 25.064 178.804 25.064C177.844 25.064 176.764 25.688 175.564 26.936C174.388 28.184 173.416 29.516 172.648 30.932C171.904 32.348 171.532 33.392 171.532 34.064C171.532 34.256 171.556 34.388 171.604 34.46C171.676 34.508 171.832 34.532 172.072 34.532ZM210.908 20.492C211.844 20.492 212.624 21.116 213.248 22.364C213.872 23.612 214.184 24.752 214.184 25.784C214.184 26.816 213.98 28.352 213.572 30.392C213.188 32.408 212.564 34.364 211.7 36.26C210.86 38.132 209.948 39.068 208.964 39.068C208.172 39.068 207.776 38.528 207.776 37.448C207.776 36.368 208.088 34.604 208.712 32.156C209.336 29.708 209.648 28.1 209.648 27.332C209.648 26.564 209.528 26.18 209.288 26.18C208.784 26.18 208.184 26.732 207.488 27.836C206.792 28.94 205.952 30.416 204.968 32.264C204.008 34.112 203.408 35.3 203.168 35.828C202.928 36.356 202.724 36.776 202.556 37.088C202.412 37.4 202.244 37.724 202.052 38.06C201.284 39.332 200.264 39.332 198.992 38.06C198.344 37.412 198.02 36.824 198.02 36.296C198.02 36.2 198.212 35.288 198.596 33.56C199.004 31.808 199.208 29.816 199.208 27.584C199.208 26.648 199.1 26.18 198.884 26.18C198.596 26.18 198.26 26.468 197.876 27.044C197.492 27.62 196.904 28.664 196.112 30.176C195.32 31.688 194.636 32.936 194.06 33.92C192.044 37.352 190.508 39.068 189.452 39.068C188.924 39.068 188.264 38.624 187.472 37.736C186.704 36.848 186.32 36.176 186.32 35.72C186.32 35.24 186.584 34.112 187.112 32.336C187.664 30.536 188.012 28.628 188.156 26.612C188.324 24.596 188.468 23.024 188.588 21.896C188.732 20.768 189.02 20.204 189.452 20.204C190.364 20.204 191.24 20.588 192.08 21.356C192.944 22.1 193.376 22.784 193.376 23.408C193.376 24.824 192.86 27.296 191.828 30.824C193.508 26.816 194.924 24.104 196.076 22.688C197.3 21.224 198.476 20.492 199.604 20.492C200.228 20.492 200.996 21.068 201.908 22.22C202.844 23.372 203.312 24.452 203.312 25.46C203.312 26.444 203.3 27.308 203.276 28.052C204.02 26.18 205.148 24.452 206.66 22.868C208.172 21.284 209.588 20.492 210.908 20.492ZM220.784 15.992C220.784 15.368 221.06 14.732 221.612 14.084C222.188 13.412 222.74 13.076 223.268 13.076C223.82 13.076 224.468 13.724 225.212 15.02C225.956 16.316 226.328 17.264 226.328 17.864C226.328 18.44 226.136 18.884 225.752 19.196C225.368 19.508 224.972 19.664 224.564 19.664C223.868 19.664 223.064 19.208 222.152 18.296C221.24 17.384 220.784 16.616 220.784 15.992ZM221.324 20.492C222.164 20.492 222.908 20.972 223.556 21.932C224.228 22.892 224.564 23.816 224.564 24.704C224.564 25.16 224.144 26.804 223.304 29.636C222.488 32.444 221.672 35.108 220.856 37.628C220.568 38.564 219.98 39.032 219.092 39.032C218.564 39.032 218.096 38.84 217.688 38.456C217.304 38.048 217.112 37.532 217.112 36.908C217.112 36.26 217.412 34.676 218.012 32.156C218.636 29.612 219.104 27.452 219.416 25.676C219.752 23.876 220.052 22.568 220.316 21.752C220.604 20.912 220.94 20.492 221.324 20.492ZM232.763 10.412C233.339 10.412 234.083 10.94 234.995 11.996C235.907 13.052 236.363 14.06 236.363 15.02C236.363 15.98 236.219 17.696 235.931 20.168C235.643 22.616 235.343 24.572 235.031 26.036C233.039 34.724 231.647 39.068 230.855 39.068C230.327 39.068 229.667 38.648 228.875 37.808C228.107 36.944 227.723 36.236 227.723 35.684C227.723 35.636 228.047 34.388 228.695 31.94C229.343 29.492 229.991 26.348 230.639 22.508C231.311 18.644 231.647 14.96 231.647 11.456C231.647 10.76 232.019 10.412 232.763 10.412ZM251.758 21.392C251.902 20.792 252.298 20.492 252.946 20.492C253.594 20.492 254.254 20.9 254.926 21.716C255.622 22.532 255.97 23.456 255.97 24.488C255.97 25.088 255.754 26.036 255.322 27.332C254.89 28.628 254.578 29.552 254.386 30.104C254.218 30.656 253.966 31.412 253.63 32.372C253.294 33.308 252.982 34.184 252.694 35C252.43 35.792 252.058 36.86 251.578 38.204C251.122 39.548 250.702 40.796 250.318 41.948C249.574 44.108 248.662 45.776 247.582 46.952C246.526 48.128 245.146 48.716 243.442 48.716C241.738 48.716 240.214 48.26 238.87 47.348C237.526 46.46 236.854 45.56 236.854 44.648C236.854 44.096 237.094 43.484 237.574 42.812C238.078 42.14 238.498 41.804 238.834 41.804C239.194 41.804 239.65 42.08 240.202 42.632C240.778 43.208 241.366 43.772 241.966 44.324C242.566 44.9 243.094 45.188 243.55 45.188C243.862 45.188 244.114 45.044 244.306 44.756C244.522 44.468 244.69 44.204 244.81 43.964C244.954 43.748 245.098 43.436 245.242 43.028C245.386 42.644 245.518 42.284 245.638 41.948C245.758 41.612 245.902 41.168 246.07 40.616C246.238 40.064 246.382 39.572 246.502 39.14C246.91 37.844 247.258 36.692 247.546 35.684C246.754 36.716 245.938 37.544 245.098 38.168C244.258 38.768 243.478 39.068 242.758 39.068C242.062 39.068 241.186 38.54 240.13 37.484C239.098 36.404 238.582 35.228 238.582 33.956C238.582 32.66 238.858 30.932 239.41 28.772C239.986 26.612 240.694 24.692 241.534 23.012C242.374 21.332 243.118 20.492 243.766 20.492C244.51 20.492 245.206 20.816 245.854 21.464C246.526 22.088 246.862 22.7 246.862 23.3C246.862 23.876 246.562 24.812 245.962 26.108C245.386 27.404 244.798 28.82 244.198 30.356C243.598 31.892 243.298 33.2 243.298 34.28C243.298 34.424 243.358 34.496 243.478 34.496C243.79 34.496 244.45 33.92 245.458 32.768C246.466 31.592 247.594 29.936 248.842 27.8C250.114 25.64 251.086 23.504 251.758 21.392Z" fill="#042082"/>
</svg>
