<svg width="36" height="37" viewBox="0 0 36 37" fill="none" xmlns="http://www.w3.org/2000/svg">
<path d="M4.49968 19.9998H5.99968V30.4998C5.99968 32.1543 7.34518 33.4998 8.99968 33.4998H26.9997C28.6542 33.4998 29.9997 32.1543 29.9997 30.4998V19.9998H31.4997C31.7963 19.9998 32.0863 19.9117 32.3329 19.7469C32.5795 19.5821 32.7717 19.3478 32.8852 19.0738C32.9987 18.7997 33.0284 18.4982 32.9706 18.2073C32.9127 17.9163 32.7699 17.6491 32.5602 17.4393L19.0602 3.93931C18.921 3.79989 18.7557 3.68929 18.5737 3.61382C18.3917 3.53836 18.1967 3.49951 17.9997 3.49951C17.8027 3.49951 17.6076 3.53836 17.4256 3.61382C17.2437 3.68929 17.0784 3.79989 16.9392 3.93931L3.43918 17.4393C3.22947 17.6491 3.08666 17.9163 3.02881 18.2073C2.97095 18.4982 3.00066 18.7997 3.11416 19.0738C3.22767 19.3478 3.41988 19.5821 3.66649 19.7469C3.91311 19.9117 4.20305 19.9998 4.49968 19.9998ZM14.9997 30.4998V22.9998H20.9997V30.4998H14.9997ZM17.9997 7.12081L26.9997 16.1208V22.9998L27.0012 30.4998H23.9997V22.9998C23.9997 21.3453 22.6542 19.9998 20.9997 19.9998H14.9997C13.3452 19.9998 11.9997 21.3453 11.9997 22.9998V30.4998H8.99968V16.1208L17.9997 7.12081Z" fill="#E13D09"/>
</svg>
