<svg width="42" height="42" viewBox="0 0 42 42" fill="none" xmlns="http://www.w3.org/2000/svg">
<path fill-rule="evenodd" clip-rule="evenodd" d="M12.6855 0.954008C14.836 0.855008 15.5217 0.833008 20.9997 0.833008C26.4777 0.833008 27.1633 0.856841 29.312 0.954008C31.4607 1.05117 32.9273 1.39401 34.2107 1.89084C35.5545 2.39867 36.7737 3.19251 37.782 4.21917C38.8087 5.22567 39.6007 6.44301 40.1067 7.78868C40.6053 9.07201 40.9463 10.5387 41.0453 12.6837C41.1443 14.8378 41.1663 15.5235 41.1663 20.9997C41.1663 26.4777 41.1425 27.1633 41.0453 29.3138C40.9482 31.4588 40.6053 32.9255 40.1067 34.2088C39.6007 35.5547 38.8074 36.774 37.782 37.782C36.7737 38.8087 35.5545 39.6007 34.2107 40.1067C32.9273 40.6053 31.4607 40.9463 29.3157 41.0453C27.1633 41.1443 26.4777 41.1663 20.9997 41.1663C15.5217 41.1663 14.836 41.1425 12.6855 41.0453C10.5405 40.9482 9.07384 40.6053 7.79051 40.1067C6.4447 39.6006 5.22535 38.8073 4.21734 37.782C3.19137 36.7749 2.39742 35.5561 1.89084 34.2107C1.39401 32.9273 1.05301 31.4607 0.954008 29.3157C0.855008 27.1615 0.833008 26.4758 0.833008 20.9997C0.833008 15.5217 0.856841 14.836 0.954008 12.6873C1.05117 10.5387 1.39401 9.07201 1.89084 7.78868C2.39817 6.44316 3.19273 5.22442 4.21917 4.21734C5.22575 3.19159 6.44387 2.39765 7.78868 1.89084C9.07201 1.39401 10.5387 1.05301 12.6837 0.954008H12.6855ZM29.1488 4.58401C27.0222 4.48684 26.3842 4.46668 20.9997 4.46668C15.6152 4.46668 14.9772 4.48684 12.8505 4.58401C10.8833 4.67384 9.81634 5.00201 9.10501 5.27884C8.16451 5.64551 7.49168 6.08001 6.78584 6.78584C6.11676 7.43677 5.60184 8.22919 5.27884 9.10501C5.00201 9.81634 4.67384 10.8833 4.58401 12.8505C4.48684 14.9772 4.46668 15.6152 4.46668 20.9997C4.46668 26.3842 4.48684 27.0222 4.58401 29.1488C4.67384 31.116 5.00201 32.183 5.27884 32.8943C5.60151 33.7688 6.11668 34.5627 6.78584 35.2135C7.43668 35.8827 8.23051 36.3978 9.10501 36.7205C9.81634 36.9973 10.8833 37.3255 12.8505 37.4153C14.9772 37.5125 15.6133 37.5327 20.9997 37.5327C26.386 37.5327 27.0222 37.5125 29.1488 37.4153C31.116 37.3255 32.183 36.9973 32.8943 36.7205C33.8348 36.3538 34.5077 35.9193 35.2135 35.2135C35.8827 34.5627 36.3978 33.7688 36.7205 32.8943C36.9973 32.183 37.3255 31.116 37.4153 29.1488C37.5125 27.0222 37.5327 26.3842 37.5327 20.9997C37.5327 15.6152 37.5125 14.9772 37.4153 12.8505C37.3255 10.8833 36.9973 9.81634 36.7205 9.10501C36.3538 8.16451 35.9193 7.49168 35.2135 6.78584C34.5625 6.11681 33.7701 5.60189 32.8943 5.27884C32.183 5.00201 31.116 4.67384 29.1488 4.58401V4.58401ZM18.4238 27.2165C19.8624 27.8153 21.4642 27.8962 22.9557 27.4452C24.4472 26.9942 25.7359 26.0394 26.6016 24.7438C27.4674 23.4482 27.8564 21.8923 27.7024 20.3417C27.5484 18.7911 26.8609 17.3421 25.7572 16.2422C25.0536 15.539 24.2029 15.0007 23.2663 14.6658C22.3297 14.3309 21.3305 14.2078 20.3406 14.3055C19.3507 14.4031 18.3948 14.719 17.5416 15.2304C16.6885 15.7418 15.9594 16.436 15.4067 17.2631C14.8541 18.0901 14.4917 19.0294 14.3456 20.0133C14.1996 20.9972 14.2735 22.0012 14.562 22.9531C14.8505 23.905 15.3466 24.7811 16.0143 25.5183C16.6821 26.2555 17.505 26.8355 18.4238 27.2165ZM13.67 13.67C14.6326 12.7075 15.7753 11.9439 17.0329 11.423C18.2905 10.9021 19.6384 10.634 20.9997 10.634C22.3609 10.634 23.7088 10.9021 24.9665 11.423C26.2241 11.9439 27.3668 12.7075 28.3293 13.67C29.2919 14.6326 30.0554 15.7753 30.5763 17.0329C31.0973 18.2905 31.3654 19.6384 31.3654 20.9997C31.3654 22.3609 31.0973 23.7088 30.5763 24.9665C30.0554 26.2241 29.2919 27.3668 28.3293 28.3293C26.3854 30.2733 23.7488 31.3654 20.9997 31.3654C18.2505 31.3654 15.614 30.2733 13.67 28.3293C11.7261 26.3854 10.634 23.7488 10.634 20.9997C10.634 18.2505 11.7261 15.614 13.67 13.67V13.67ZM33.6643 12.1777C33.9029 11.9527 34.0938 11.6821 34.2259 11.382C34.358 11.0818 34.4285 10.7583 34.4333 10.4304C34.4381 10.1025 34.377 9.77701 34.2537 9.47316C34.1305 9.16931 33.9475 8.89328 33.7156 8.66141C33.4837 8.42955 33.2077 8.24656 32.9039 8.12329C32.6 8.00002 32.2745 7.93896 31.9466 7.94374C31.6188 7.94852 31.2952 8.01904 30.9951 8.15112C30.6949 8.2832 30.4244 8.47415 30.1993 8.71267C29.7617 9.17656 29.5222 9.79273 29.5315 10.4304C29.5408 11.068 29.7982 11.677 30.2491 12.1279C30.7001 12.5788 31.309 12.8363 31.9466 12.8456C32.5843 12.8549 33.2005 12.6153 33.6643 12.1777V12.1777Z" fill="#3A4360"/>
</svg>
