<svg width="23" height="27" viewBox="0 0 23 27" fill="none" xmlns="http://www.w3.org/2000/svg">
<path d="M19.511 2.10142C18.2591 0.681506 15.9961 0.0727539 13.1011 0.0727539H4.69889C4.41245 0.0727645 4.13541 0.174454 3.91758 0.359541C3.69975 0.544628 3.55542 0.800971 3.51052 1.08248L0.0120084 23.1623C-0.0575307 23.5977 0.28127 23.992 0.724739 23.992H5.91196L7.21469 15.7694L7.17426 16.0269C7.26707 15.4457 7.7666 15.017 8.35813 15.017H10.8231C15.6655 15.017 19.4572 13.0598 20.5648 7.39789C20.5976 7.23044 20.6261 7.06745 20.6507 6.90822C20.5109 6.83455 20.5109 6.83455 20.6507 6.90822C20.9806 4.81555 20.6485 3.39107 19.511 2.10142Z" fill="#27346A"/>
<path d="M9.19952 6.15437C9.34133 6.08718 9.49644 6.05235 9.6535 6.05245H16.2407C17.0207 6.05245 17.7482 6.10296 18.4131 6.20944C18.5991 6.23896 18.7842 6.2742 18.9681 6.31512C19.2286 6.37234 19.4862 6.44237 19.7398 6.52495C20.0667 6.63357 20.3711 6.76008 20.6508 6.90822C20.9806 4.81474 20.6485 3.39107 19.511 2.10142C18.2584 0.681506 15.9961 0.0727539 13.1011 0.0727539H4.69817C4.10655 0.0727539 3.60324 0.501357 3.51052 1.08248L0.0120089 23.1615C-0.0575302 23.5976 0.281271 23.9914 0.724021 23.9914H5.91196L8.61473 6.93576C8.6413 6.76812 8.70841 6.60941 8.81028 6.4733C8.91215 6.33718 9.04573 6.22773 9.19952 6.15437Z" fill="#27346A"/>
<path d="M20.5649 7.39787C19.4573 13.0589 15.6657 15.017 10.8232 15.017H8.35753C7.766 15.017 7.26638 15.4457 7.17447 16.0269L5.55378 26.2507C5.49322 26.6317 5.78935 26.977 6.17676 26.977H10.5495C10.7999 26.9769 11.0422 26.8879 11.2326 26.726C11.423 26.5641 11.5492 26.3399 11.5883 26.0937L11.6309 25.872L12.455 20.6744L12.5081 20.3871C12.5473 20.1409 12.6734 19.9167 12.8638 19.7548C13.0542 19.5929 13.2964 19.5039 13.5469 19.5038H14.2013C18.4372 19.5038 21.754 17.7913 22.7232 12.8387C23.1278 10.769 22.9184 9.04102 21.8482 7.82728C21.5236 7.45965 21.1205 7.15603 20.6509 6.9082C20.6254 7.06824 20.5978 7.23041 20.5649 7.39787Z" fill="#2790C3"/>
<path d="M19.4914 6.44871C19.3187 6.39852 19.1444 6.3541 18.9687 6.3155C18.7847 6.27525 18.5997 6.24025 18.4137 6.21054C17.7482 6.10334 17.0211 6.05274 16.2404 6.05274H9.65404C9.49686 6.05238 9.34164 6.0875 9.20006 6.15546C9.0461 6.2286 8.91237 6.33798 8.81045 6.47414C8.70854 6.61029 8.64151 6.76911 8.61518 6.93685L7.21523 15.7698L7.1748 16.0273C7.26689 15.4461 7.76643 15.0174 8.35805 15.0174H10.8237C15.6661 15.0174 19.4577 13.0601 20.5653 7.39827C20.5983 7.23081 20.6259 7.06855 20.6514 6.9086C20.3709 6.76126 20.0673 6.63395 19.7404 6.52604C19.6579 6.49883 19.5749 6.47304 19.4915 6.44871" fill="#1F264F"/>
</svg>
