<svg width="14" height="11" viewBox="0 0 14 11" fill="none" xmlns="http://www.w3.org/2000/svg">
<path d="M12.4914 0.448707C12.3187 0.398524 12.1444 0.354096 11.9687 0.315496C11.7847 0.275249 11.5997 0.240248 11.4137 0.210535C10.7482 0.10334 10.0211 0.052737 9.2404 0.052737H2.65404C2.49686 0.0523822 2.34164 0.087505 2.20006 0.155462C2.0461 0.2286 1.91237 0.337982 1.81045 0.474137C1.70854 0.610291 1.64151 0.769114 1.61518 0.936853L0.215235 9.76979L0.174805 10.0273C0.266895 9.44606 0.766426 9.01736 1.35805 9.01736H3.82372C8.66612 9.01736 12.4577 7.06013 13.5653 1.39827C13.5983 1.23081 13.6259 1.06855 13.6514 0.908602C13.3709 0.761264 13.0673 0.633952 12.7404 0.526042C12.6579 0.498827 12.5749 0.473045 12.4915 0.448707" fill="#1F264F"/>
</svg>
