<svg width="36" height="37" viewBox="0 0 36 37" fill="none" xmlns="http://www.w3.org/2000/svg">
<path d="M18 3.5C14.8381 3.49984 11.8039 4.74764 9.55686 6.97219C7.30985 9.19674 6.03162 12.2182 6 15.38C6 23.6 16.575 32.75 17.025 33.14C17.2967 33.3724 17.6425 33.5001 18 33.5001C18.3575 33.5001 18.7033 33.3724 18.975 33.14C19.5 32.75 30 23.6 30 15.38C29.9684 12.2182 28.6902 9.19674 26.4431 6.97219C24.1961 4.74764 21.1619 3.49984 18 3.5ZM18 29.975C15.495 27.59 9 20.975 9 15.38C9 12.9931 9.94821 10.7039 11.636 9.01604C13.3239 7.32821 15.6131 6.38 18 6.38C20.3869 6.38 22.6761 7.32821 24.364 9.01604C26.0518 10.7039 27 12.9931 27 15.38C27 20.93 20.505 27.59 18 29.975Z" fill="#3A4360"/>
<path d="M18 9.5C16.9617 9.5 15.9466 9.80791 15.0833 10.3848C14.2199 10.9617 13.547 11.7816 13.1496 12.7409C12.7523 13.7002 12.6483 14.7558 12.8509 15.7742C13.0535 16.7926 13.5535 17.7281 14.2877 18.4623C15.0219 19.1965 15.9574 19.6966 16.9758 19.8991C17.9942 20.1017 19.0498 19.9977 20.0091 19.6004C20.9684 19.203 21.7883 18.5301 22.3652 17.6667C22.9421 16.8034 23.25 15.7884 23.25 14.75C23.25 13.3576 22.6969 12.0223 21.7123 11.0377C20.7277 10.0531 19.3924 9.5 18 9.5V9.5ZM18 17C17.555 17 17.12 16.868 16.75 16.6208C16.38 16.3736 16.0916 16.0222 15.9213 15.611C15.751 15.1999 15.7064 14.7475 15.7932 14.311C15.8801 13.8746 16.0943 13.4737 16.409 13.159C16.7237 12.8443 17.1246 12.63 17.561 12.5432C17.9975 12.4564 18.4499 12.501 18.861 12.6713C19.2722 12.8416 19.6236 13.13 19.8708 13.5C20.118 13.87 20.25 14.305 20.25 14.75C20.25 15.3467 20.013 15.919 19.591 16.341C19.169 16.7629 18.5967 17 18 17Z" fill="#3A4360"/>
</svg>
